<?xml version="1.0" encoding="UTF-8" standalone="no"?>
<svg
   xmlns:dc="http://purl.org/dc/elements/1.1/"
   xmlns:cc="http://creativecommons.org/ns#"
   xmlns:rdf="http://www.w3.org/1999/02/22-rdf-syntax-ns#"
   xmlns:svg="http://www.w3.org/2000/svg"
   xmlns="http://www.w3.org/2000/svg"
   xmlns:sodipodi="http://sodipodi.sourceforge.net/DTD/sodipodi-0.dtd"
   xmlns:inkscape="http://www.inkscape.org/namespaces/inkscape"
   version="1.0"
   width="5000.000000pt"
   height="5000.000000pt"
   viewBox="0 0 5000.000000 5000.000000"
   preserveAspectRatio="xMidYMid meet"
   id="svg3542"
   sodipodi:docname="Animal-Trap-Icon-Green.svg"
   inkscape:version="0.92.4 (5da689c313, 2019-01-14)"
   inkscape:export-filename="C:\Users\fredy\Downloads\Animal-Trap-Icon-Green.png"
   inkscape:export-xdpi="96"
   inkscape:export-ydpi="96">
  <metadata
     id="metadata3548">
    <rdf:RDF>
      <cc:Work
         rdf:about="">
        <dc:format>image/svg+xml</dc:format>
        <dc:type
           rdf:resource="http://purl.org/dc/dcmitype/StillImage" />
        <dc:title />
      </cc:Work>
    </rdf:RDF>
  </metadata>
  <defs
     id="defs3546" />
  <sodipodi:namedview
     pagecolor="#ffffff"
     bordercolor="#666666"
     borderopacity="1"
     objecttolerance="10"
     gridtolerance="10"
     guidetolerance="10"
     inkscape:pageopacity="0"
     inkscape:pageshadow="2"
     inkscape:window-width="1920"
     inkscape:window-height="986"
     id="namedview3544"
     showgrid="false"
     inkscape:zoom="0.28943131"
     inkscape:cx="2787.4352"
     inkscape:cy="3333.3333"
     inkscape:window-x="-11"
     inkscape:window-y="-11"
     inkscape:window-maximized="1"
     inkscape:current-layer="g3540" />
  <g
     transform="translate(0.000000,5000.000000) scale(0.100000,-0.100000)"
     fill="#000000"
     stroke="none"
     id="g3540">
    <path
       d="M19560 32749 c-364 -28 -738 -142 -1050 -321 -208 -120 -359 -236 -531 -407 -439 -440 -686 -987 -729 -1618 -8 -111 -10 -1745 -8 -5513 3 -5047 5 -5362 21 -5469 89 -577 323 -1047 717 -1441 405 -406 908 -649 1490 -722 155 -19 10905 -19 11060 0 583 73 1084 316 1490 722 406 406 649 907 722 1490 19 155 19 10905 0 11060 -73 582 -316 1085 -722 1490 -394 394 -864 628 -1441 717 -108 16 -419 17 -5514 19 -2970 1 -5447 -2 -5505 -7z m5790 -1649 c1050 -64 2017 -373 2900 -928 531 -333 1037 -777 1455 -1277 184 -220 419 -555 575 -820 105 -179 291 -555 374 -758 607 -1468 607 -3169 0 -4634 -383 -925 -981 -1737 -1759 -2388 -214 -179 -519 -394 -795 -559 -172 -103 -588 -311 -785 -392 -573 -235 -1160 -375 -1825 -436 -176 -16 -804 -16 -980 0 -852 78 -1567 282 -2295 656 -973 499 -1804 1260 -2387 2186 -239 380 -450 816 -595 1230 -492 1405 -452 2960 111 4335 81 197 289 613 392 785 455 759 1027 1380 1734 1884 650 463 1404 801 2177 975 350 79 649 120 1058 144 126 8 496 6 645 -3z"
       id="path3536"
       style="fill:#00d455" />
    <path
       d="M24645 30584 c-341 -26 -682 -80 -982 -154 -610 -151 -1203 -410 -1728 -754 -317 -208 -600 -440 -886 -725 -461 -462 -794 -929 -1079 -1515 -291 -597 -461 -1192 -537 -1881 -25 -229 -25 -881 0 -1110 76 -689 246 -1284 537 -1881 218 -448 473 -837 791 -1209 132 -154 440 -462 594 -594 873 -748 1923 -1200 3085 -1328 237 -26 883 -26 1120 0 1154 127 2180 565 3060 1307 173 146 494 467 640 640 742 880 1180 1906 1307 3060 14 131 18 246 18 560 0 314 -4 429 -18 560 -127 1153 -565 2180 -1307 3060 -146 173 -467 494 -640 640 -877 739 -1905 1179 -3050 1306 -138 15 -794 28 -925 18z m1501 -1372 l118 -654 45 -31 c158 -107 273 -253 381 -482 128 -271 196 -587 207 -965 15 -538 -101 -1020 -328 -1356 -102 -152 -244 -274 -376 -324 -73 -28 -209 -37 -284 -20 -574 133 -923 1218 -713 2213 85 402 282 764 494 908 42 29 50 41 59 79 5 25 67 332 137 684 79 395 131 631 136 620 4 -11 60 -313 124 -672z m-2341 12 l120 -666 55 -35 c30 -20 87 -68 125 -107 229 -234 386 -624 440 -1096 22 -185 17 -576 -10 -750 -35 -236 -113 -496 -203 -675 -99 -199 -262 -387 -398 -457 -236 -123 -460 -81 -670 127 -217 214 -365 548 -435 980 -30 188 -37 576 -15 775 54 461 204 842 426 1082 32 35 81 79 109 98 28 19 52 42 55 50 2 8 64 313 138 678 73 364 135 662 138 662 3 0 59 -300 125 -666z m-2838 -1686 c1 -425 102 -771 300 -1023 l43 -55 40 20 c114 58 294 64 450 15 104 -33 246 -106 354 -182 107 -77 344 -313 435 -436 199 -267 360 -586 446 -883 59 -202 77 -317 82 -529 7 -270 -14 -388 -98 -557 -75 -150 -211 -261 -357 -294 -198 -44 -420 15 -658 175 -479 322 -880 985 -990 1636 -12 67 -18 161 -18 285 -1 200 11 286 60 420 l25 69 -50 86 c-212 370 -245 815 -99 1332 17 62 32 113 33 113 1 0 2 -87 2 -192z m8123 0 c121 -464 78 -905 -120 -1251 l-51 -88 25 -69 c49 -134 61 -220 60 -420 0 -124 -6 -218 -18 -285 -110 -652 -511 -1314 -990 -1636 -238 -160 -460 -219 -658 -175 -146 33 -282 144 -357 294 -84 169 -105 287 -98 557 5 212 23 327 82 529 86 297 247 616 446 883 91 123 328 359 435 436 108 76 250 149 354 182 156 49 336 43 450 -15 l40 -20 43 55 c198 252 299 597 300 1025 l0 195 19 -60 c10 -33 27 -95 38 -137z m-3895 -2085 c92 -20 222 -77 315 -138 115 -75 292 -258 383 -395 261 -394 401 -927 385 -1469 l-5 -159 91 -6 c305 -23 547 -90 819 -228 216 -110 374 -226 538 -395 545 -562 610 -1302 156 -1780 -250 -263 -637 -413 -1067 -413 -561 0 -1161 271 -1526 687 -81 93 -190 250 -239 345 -17 32 -37 58 -45 58 -8 0 -28 -26 -45 -58 -89 -172 -251 -375 -408 -513 -479 -420 -1169 -609 -1742 -477 -800 184 -1182 891 -879 1626 155 377 478 711 891 920 272 138 514 205 819 228 l91 6 -5 153 c-17 544 123 1080 385 1475 91 136 268 320 382 395 128 84 294 145 436 159 63 6 194 -4 270 -21z"
       id="path3538"
       style="fill:#00d455" />
  </g>
</svg>
