<?xml version="1.0" encoding="UTF-8" standalone="no"?>
<svg
   xmlns:dc="http://purl.org/dc/elements/1.1/"
   xmlns:cc="http://creativecommons.org/ns#"
   xmlns:rdf="http://www.w3.org/1999/02/22-rdf-syntax-ns#"
   xmlns:svg="http://www.w3.org/2000/svg"
   xmlns="http://www.w3.org/2000/svg"
   xmlns:sodipodi="http://sodipodi.sourceforge.net/DTD/sodipodi-0.dtd"
   xmlns:inkscape="http://www.inkscape.org/namespaces/inkscape"
   version="1.0"
   width="5000.000000pt"
   height="5000.000000pt"
   viewBox="0 0 5000.000000 5000.000000"
   preserveAspectRatio="xMidYMid meet"
   id="svg3542"
   sodipodi:docname="Animal-Trap-Icon-DkGrey.svg"
   inkscape:version="0.92.4 (5da689c313, 2019-01-14)">
  <metadata
     id="metadata3548">
    <rdf:RDF>
      <cc:Work
         rdf:about="">
        <dc:format>image/svg+xml</dc:format>
        <dc:type
           rdf:resource="http://purl.org/dc/dcmitype/StillImage" />
        <dc:title />
      </cc:Work>
    </rdf:RDF>
  </metadata>
  <defs
     id="defs3546" />
  <sodipodi:namedview
     pagecolor="#ffffff"
     bordercolor="#666666"
     borderopacity="1"
     objecttolerance="10"
     gridtolerance="10"
     guidetolerance="10"
     inkscape:pageopacity="0"
     inkscape:pageshadow="2"
     inkscape:window-width="1920"
     inkscape:window-height="1017"
     id="namedview3544"
     showgrid="false"
     inkscape:zoom="0.10122188"
     inkscape:cx="3333.3333"
     inkscape:cy="3333.3333"
     inkscape:window-x="-8"
     inkscape:window-y="-8"
     inkscape:window-maximized="1"
     inkscape:current-layer="g3540" />
  <g
     transform="translate(0.000000,5000.000000) scale(0.100000,-0.100000)"
     fill="#000000"
     stroke="none"
     id="g3540">
    <path
       d="M 7662.042,49700.943 C 6501.7477,49611.69 5309.5773,49248.301 4315.0393,48677.717 3652.014,48295.202 3170.6832,47925.438 2622.4123,47380.355 1223.0464,45977.801 435.7039,44234.172 298.63618,42222.783 273.1352,41868.957 266.75996,36660.384 273.1352,24649.426 282.69807,8561.4995 289.07331,7557.3987 340.07526,7216.3232 623.77357,5377.0656 1369.677,3878.8835 2625.5999,2622.9606 3916.5866,1328.7862 5519.9603,554.1942 7375.156,321.49782 c 494.0814,-60.5648 34761.013,-60.5648 35255.094,0 1858.384,232.69638 3455.382,1007.28838 4749.556,2301.46278 1294.175,1294.1743 2068.767,2891.1727 2301.463,4749.5561 60.565,494.0813 60.565,34761.0133 0,35255.0943 -232.696,1855.196 -1007.288,3458.569 -2301.463,4749.556 -1255.922,1255.923 -2754.105,2001.827 -4593.362,2285.525 -344.263,51.002 -1335.614,54.189 -17576.545,60.565 -9467.236,3.187 -17362.975,-6.376 -17547.857,-22.314 z m 18456.329,-5256.388 c 3347.002,-204.007 6429.432,-1188.982 9244.102,-2958.112 1692.627,-1061.478 3305.564,-2476.782 4637.99,-4070.593 586.522,-701.277 1335.613,-1769.13 1832.882,-2613.85 334.7,-570.584 927.598,-1769.13 1192.17,-2416.217 1934.887,-4679.428 1934.887,-10101.573 0,-14771.438 -1220.859,-2948.55 -3127.056,-5536.899 -5607.026,-7612.041 -682.151,-570.5838 -1654.375,-1255.9224 -2534.159,-1781.88 -548.271,-328.325 -1874.321,-991.3503 -2502.283,-1249.5476 -1826.507,-749.0911 -3697.641,-1195.3581 -5817.409,-1389.803 -561.022,-51.002 -2562.848,-51.002 -3123.869,0 -2715.854,248.6345 -4995.003,898.9093 -7315.592,2091.0797 -3101.556,1590.6232 -5750.469,4016.4029 -7608.8525,6968.1409 -761.8415,1211.296 -1434.4297,2601.099 -1896.6348,3920.774 -1568.3098,4478.609 -1440.8049,9435.36 353.826,13818.34 258.1973,627.961 921.2226,1954.012 1249.5477,2502.283 1450.3678,2419.404 3273.6876,4398.917 5527.3356,6005.479 2071.954,1475.868 4475.421,2553.285 6939.452,3107.931 1115.668,251.822 2068.767,382.514 3372.504,459.017 401.64,25.501 1581.06,19.126 2056.016,-9.563 z"
       id="path3536"
       style="fill:#3e4837;stroke-width:3.18762159"
       inkscape:connector-curvature="0" />
    <path
       d="m 23871.098,42799.743 c -1086.979,-82.879 -2173.958,-255.01 -3130.245,-490.894 -1944.449,-481.331 -3834.709,-1306.925 -5508.21,-2403.467 C 14222.167,39242.357 13320.07,38502.829 12408.41,37594.357 10938.917,36121.675 9877.4389,34633.056 8968.9668,32765.11 8041.3689,30862.1 7499.4733,28965.465 7257.214,26769.194 c -79.6905,-729.965 -79.6905,-2808.295 0,-3538.26 242.2593,-2196.271 784.1549,-4092.906 1711.7528,-5995.916 694.9015,-1428.055 1507.7452,-2668.039 2521.4082,-3853.835 420.766,-490.893 1402.554,-1472.681 1893.448,-1893.447 2782.793,-2384.3408 6129.796,-3825.1457 9833.812,-4233.1613 755.466,-82.8782 2814.67,-82.8782 3570.136,0 3678.516,404.8279 6949.015,1801.0062 9754.122,4166.2213 551.459,465.393 1574.685,1488.619 2040.078,2040.078 2365.215,2805.107 3761.393,6075.607 4166.221,9754.122 44.627,417.578 57.378,784.155 57.378,1785.068 0,1000.913 -12.751,1367.49 -57.378,1785.068 -404.828,3675.328 -1801.006,6949.015 -4166.221,9754.122 -465.393,551.458 -1488.619,1574.685 -2040.078,2040.078 -2795.544,2355.652 -6072.419,3758.205 -9722.246,4163.033 -439.891,47.815 -2530.971,89.254 -2948.549,57.378 z m 4784.619,-4373.417 376.14,-2084.705 143.443,-98.816 c 503.644,-341.075 870.22,-806.468 1214.484,-1536.433 408.015,-863.846 624.773,-1871.134 659.837,-3076.055 47.815,-1714.941 -321.949,-3251.374 -1045.54,-4322.415 -325.137,-484.519 -777.779,-873.408 -1198.545,-1032.79 -232.697,-89.253 -666.213,-117.942 -905.285,-63.752 -1829.695,423.954 -2942.175,3882.523 -2272.774,7054.207 270.948,1281.423 898.909,2435.342 1574.685,2894.36 133.88,92.441 159.381,130.692 188.07,251.822 15.938,79.691 213.57,1058.29 436.704,2180.333 251.822,1259.111 417.578,2011.389 433.516,1976.326 12.751,-35.064 191.258,-997.726 395.265,-2142.082 z m -7462.222,38.251 382.515,-2122.956 175.319,-111.566 c 95.629,-63.753 277.323,-216.759 398.453,-341.076 729.965,-745.903 1230.422,-1989.076 1402.553,-3493.633 70.128,-589.71 54.19,-1836.07 -31.876,-2390.716 -111.567,-752.279 -360.201,-1581.061 -647.087,-2151.645 -315.575,-634.337 -835.157,-1233.609 -1268.673,-1456.743 -752.279,-392.077 -1466.306,-258.197 -2135.707,404.828 -691.714,682.151 -1163.482,1746.817 -1386.615,3123.869 -95.629,599.273 -117.942,1836.07 -47.815,2470.407 172.132,1469.493 650.275,2683.977 1357.927,3449.006 102.004,111.567 258.198,251.822 347.451,312.387 89.253,60.565 165.756,133.88 175.319,159.381 6.375,25.501 204.008,997.726 439.892,2161.208 232.696,1160.294 430.329,2110.205 439.892,2110.205 9.563,0 188.069,-956.286 398.452,-2122.956 z m -9046.47,-5374.33 c 3.188,-1354.739 325.138,-2457.656 956.287,-3260.936 l 137.068,-175.32 127.505,63.753 c 363.388,184.882 937.16,204.008 1434.429,47.814 331.513,-105.191 784.155,-337.888 1128.418,-580.147 341.076,-245.447 1096.542,-997.726 1386.616,-1389.803 634.336,-851.095 1147.543,-1867.946 1421.679,-2814.67 188.07,-643.899 245.447,-1010.476 261.385,-1686.252 22.313,-860.657 -44.627,-1236.797 -312.387,-1775.505 -239.072,-478.143 -672.588,-831.969 -1137.981,-937.161 -631.149,-140.255 -1338.801,47.815 -2097.455,557.834 -1526.871,1026.414 -2805.107,3139.807 -3155.745,5214.949 -38.252,213.571 -57.377,513.207 -57.377,908.472 -3.188,637.524 35.063,911.66 191.257,1338.801 l 79.69,219.946 -159.381,274.136 c -675.776,1179.42 -780.967,2597.911 -315.574,4245.911 54.189,197.633 102.004,360.202 105.191,360.202 3.188,0 6.375,-277.323 6.375,-612.024 z m 25893.05,0 c 385.703,-1479.056 248.635,-2884.797 -382.514,-3987.714 l -162.569,-280.511 79.691,-219.946 c 156.193,-427.141 194.445,-701.277 191.257,-1338.801 0,-395.265 -19.126,-694.901 -57.377,-908.472 -350.639,-2078.329 -1628.875,-4188.535 -3155.746,-5214.949 -758.654,-510.019 -1466.306,-698.089 -2097.455,-557.834 -465.392,105.192 -898.909,459.018 -1137.981,937.161 -267.76,538.708 -334.7,914.848 -312.386,1775.505 15.938,675.776 73.315,1042.353 261.385,1686.252 274.135,946.724 787.342,1963.575 1421.679,2814.67 290.073,392.077 1045.54,1144.356 1386.615,1389.803 344.263,242.259 796.906,474.956 1128.418,580.147 497.269,156.194 1071.041,137.068 1434.43,-47.814 l 127.505,-63.753 137.067,175.32 c 631.15,803.28 953.099,1903.01 956.287,3267.312 v 621.586 l 60.565,-191.257 c 31.876,-105.192 86.066,-302.825 121.129,-436.705 z M 25624.289,26444.056 c 293.262,-63.752 707.652,-245.446 1004.101,-439.891 366.577,-239.072 930.786,-822.407 1220.859,-1259.111 831.969,-1255.923 1278.236,-2954.925 1227.235,-4682.616 l -15.939,-506.832 290.074,-19.125 c 972.225,-73.316 1743.629,-286.886 2610.662,-726.778 688.526,-350.639 1192.171,-720.403 1714.94,-1259.111 1737.254,-1791.443 1944.45,-4150.283 497.269,-5673.966 -796.905,-838.345 -2030.515,-1316.488 -3401.192,-1316.488 -1788.255,0 -3700.828,863.846 -4864.31,2189.896 -258.198,296.449 -605.648,796.906 -761.842,1099.73 -54.189,102.004 -117.942,184.882 -143.443,184.882 -25.501,0 -89.253,-82.878 -143.443,-184.882 -283.698,-548.271 -800.093,-1195.358 -1300.549,-1635.25 -1526.871,-1338.801 -3726.33,-1941.262 -5552.837,-1520.496 -2550.097,586.523 -3767.769,2840.171 -2801.919,5183.073 494.081,1201.733 1523.683,2266.399 2840.17,2932.612 867.033,439.892 1638.438,653.462 2610.662,726.778 l 290.074,19.125 -15.938,487.706 c -54.19,1734.066 392.077,3442.632 1227.234,4701.742 290.074,433.517 854.283,1020.039 1217.672,1259.111 408.015,267.76 937.16,462.205 1389.803,506.831 200.82,19.126 618.398,-12.75 860.657,-66.94 z"
       id="path3538"
       style="fill:#3e4837;stroke-width:3.18762159"
       inkscape:connector-curvature="0" />
  </g>
</svg>
