<?xml version="1.0" encoding="UTF-8" standalone="no"?>
<svg
   xmlns:dc="http://purl.org/dc/elements/1.1/"
   xmlns:cc="http://creativecommons.org/ns#"
   xmlns:rdf="http://www.w3.org/1999/02/22-rdf-syntax-ns#"
   xmlns:svg="http://www.w3.org/2000/svg"
   xmlns="http://www.w3.org/2000/svg"
   xmlns:sodipodi="http://sodipodi.sourceforge.net/DTD/sodipodi-0.dtd"
   xmlns:inkscape="http://www.inkscape.org/namespaces/inkscape"
   version="1.0"
   width="5000.000000pt"
   height="5000.000000pt"
   viewBox="0 0 5000.000000 5000.000000"
   preserveAspectRatio="none"
   id="svg3542"
   sodipodi:docname="Animal-Trap-Icon-Red.svg"
   inkscape:version="0.92.4 (5da689c313, 2019-01-14)"
   inkscape:export-filename="C:\Users\fredy\Downloads\Animal-Trap-Icon-Red.png"
   inkscape:export-xdpi="96"
   inkscape:export-ydpi="96">
  <metadata
     id="metadata3548">
    <rdf:RDF>
      <cc:Work
         rdf:about="">
        <dc:format>image/svg+xml</dc:format>
        <dc:type
           rdf:resource="http://purl.org/dc/dcmitype/StillImage" />
        <dc:title />
      </cc:Work>
    </rdf:RDF>
  </metadata>
  <defs
     id="defs3546" />
  <sodipodi:namedview
     pagecolor="#ffffff"
     bordercolor="#666666"
     borderopacity="1"
     objecttolerance="10"
     gridtolerance="10"
     guidetolerance="10"
     inkscape:pageopacity="0"
     inkscape:pageshadow="2"
     inkscape:window-width="2560"
     inkscape:window-height="1377"
     id="namedview3544"
     showgrid="false"
     inkscape:zoom="0.10232942"
     inkscape:cx="3474.6378"
     inkscape:cy="4206.6091"
     inkscape:window-x="1912"
     inkscape:window-y="-8"
     inkscape:window-maximized="1"
     inkscape:current-layer="g3540" />
  <g
     transform="translate(0.000000,5000.000000) scale(0.100000,-0.100000)"
     fill="#000000"
     stroke="none"
     id="g3540">
    <path
       d="M 7585.2418,49810.366 C 6419.8075,49720.718 5222.3558,49355.719 4223.4122,48782.607 3557.4498,48398.398 3073.9867,48026.996 2523.287,47479.498 1117.722,46070.731 326.89166,44319.378 189.21673,42299.079 163.60279,41943.685 157.19931,36712.038 163.60279,24647.873 173.20802,8488.6785 179.6115,7480.1297 230.83938,7137.5432 515.79446,5290.1378 1265.0022,3785.3189 2526.4887,2523.8324 3823.1944,1223.9249 5433.6708,445.90151 7297.085,212.17431 c 496.27,-60.83311 34915.001,-60.83311 35411.271,0 1866.616,233.7272 3470.689,1011.75059 4770.597,2311.65809 1299.907,1299.9074 2077.93,2903.9803 2311.658,4770.5962 60.833,496.2701 60.833,34915.0014 0,35411.2714 -233.728,1863.414 -1011.751,3473.891 -2311.658,4770.596 -1261.487,1261.487 -2766.306,2010.694 -4613.711,2295.65 -345.788,51.227 -1341.53,54.429 -17654.408,60.833 -9509.175,3.201 -17439.8912,-6.404 -17625.5922,-22.413 z M 26123.331,44530.693 c 3361.829,-204.911 6457.914,-1194.25 9285.053,-2971.217 1700.125,-1066.18 3320.206,-2487.754 4658.535,-4088.625 589.12,-704.383 1341.53,-1776.967 1841.002,-2625.429 336.183,-573.112 931.707,-1776.967 1197.451,-2426.92 1943.458,-4700.158 1943.458,-10146.322 0,-14836.875 C 41879.105,14620.015 39964.463,12020.2 37473.507,9935.8661 36788.335,9362.7542 35811.803,8674.3796 34928.122,8146.0921 34377.423,7816.3126 33045.498,7150.3502 32414.754,6891.009 30580.156,6138.5996 28700.733,5690.3556 26571.574,5495.0493 c -563.506,-51.2278 -2574.2,-51.2278 -3137.707,0 -2727.885,249.7359 -5017.131,902.8914 -7347.999,2100.3431 -3115.295,1597.6695 -5775.943,4034.1956 -7642.5593,6999.0086 -765.2164,1216.662 -1440.7841,2612.622 -1905.0367,3938.144 -1575.2573,4498.448 -1447.1876,9477.157 355.3934,13879.553 259.3411,630.743 925.3036,1962.668 1255.083,2513.368 1456.7929,2430.122 3288.1896,4418.404 5551.8216,6032.083 2081.132,1482.406 4495.246,2564.595 6970.193,3121.698 1120.61,252.938 2077.931,384.21 3387.444,461.051 403.419,25.614 1588.064,19.211 2065.124,-9.605 z"
       id="path3536"
       style="fill:#ff0000;stroke-width:3.20174241"
       inkscape:connector-curvature="0" />
    <path
       d="m 23866.102,42878.594 c -1091.794,-83.245 -2183.588,-256.139 -3144.111,-493.068 -1953.063,-483.463 -3851.696,-1312.715 -5532.611,-2414.114 -1014.952,-665.962 -1921.045,-1408.767 -2836.744,-2321.263 -1476.003,-1479.205 -2542.1832,-2974.419 -3454.6798,-4850.64 -931.7071,-1911.44 -1476.0033,-3816.477 -1719.3357,-6022.478 -80.0436,-733.199 -80.0436,-2820.735 0,-3553.934 243.3324,-2206 787.6286,-4111.037 1719.3357,-6022.477 697.9798,-1434.381 1514.4238,-2679.859 2532.5778,-3870.907 422.63,-493.068 1408.767,-1479.205 1901.835,-1901.835 2795.122,-2394.9033 6156.951,-3842.0908 9877.376,-4251.9139 758.813,-83.2453 2827.138,-83.2453 3585.951,0 3694.811,406.6213 6979.799,1808.9845 9797.332,4184.6769 553.902,467.455 1581.661,1495.214 2049.115,2049.116 2375.693,2817.533 3778.057,6102.521 4184.678,9797.332 44.824,419.428 57.631,787.628 57.631,1792.975 0,1005.347 -12.807,1373.548 -57.631,1792.976 -406.621,3691.609 -1808.985,6979.799 -4184.678,9797.332 -467.454,553.901 -1495.213,1581.661 -2049.115,2049.115 -2807.928,2366.088 -6099.319,3774.854 -9765.314,4181.476 -441.841,48.026 -2542.184,89.649 -2961.612,57.631 z m 4805.815,-4392.791 377.806,-2093.939 144.079,-99.254 c 505.875,-342.587 874.075,-810.041 1219.863,-1543.24 409.823,-867.672 627.542,-1879.423 662.761,-3089.681 48.026,-1722.538 -323.376,-3265.778 -1050.171,-4341.563 -326.578,-486.665 -781.226,-877.278 -1203.856,-1037.365 -233.727,-89.649 -669.164,-118.464 -909.294,-64.035 -1837.801,425.832 -2955.209,3899.723 -2282.843,7085.456 272.148,1287.101 902.892,2446.132 1581.661,2907.183 134.473,92.85 160.087,131.271 188.903,252.937 16.008,80.044 214.516,1062.979 438.638,2189.992 252.938,1264.688 419.429,2020.3 435.437,1985.08 12.807,-35.219 192.105,-1002.145 397.016,-2151.571 z m -7495.279,38.421 384.21,-2132.36 176.095,-112.061 c 96.053,-64.035 278.552,-217.719 400.218,-342.587 733.199,-749.207 1235.873,-1997.887 1408.767,-3509.109 70.438,-592.323 54.429,-1844.204 -32.018,-2401.307 -112.061,-755.611 -361.796,-1588.064 -649.953,-2161.176 -316.973,-637.147 -838.857,-1239.075 -1274.294,-1463.197 -755.611,-393.814 -1472.801,-259.341 -2145.167,406.622 -694.778,685.173 -1168.636,1754.555 -1392.758,3137.707 -96.052,601.928 -118.465,1844.204 -48.026,2481.351 172.894,1476.003 653.155,2695.867 1363.942,3464.285 102.456,112.061 259.341,252.938 348.99,313.771 89.649,60.833 166.49,134.473 176.096,160.087 6.403,25.614 204.911,1002.145 441.84,2170.781 233.727,1165.435 432.235,2119.554 441.841,2119.554 9.605,0 188.902,-960.523 400.217,-2132.361 z m -9086.545,-5398.137 c 3.202,-1360.741 326.578,-2468.544 960.523,-3275.383 l 137.675,-176.096 128.07,64.035 c 364.998,185.701 941.312,204.912 1440.784,48.026 332.981,-105.657 787.628,-339.384 1133.417,-582.717 342.586,-246.534 1101.399,-1002.145 1392.758,-1395.96 637.146,-854.865 1152.627,-1876.221 1427.977,-2827.138 188.903,-646.752 246.534,-1014.953 262.543,-1693.722 22.412,-864.47 -44.825,-1242.276 -313.771,-1783.37 -240.131,-480.262 -675.568,-835.655 -1143.022,-941.313 -633.945,-140.876 -1344.732,48.026 -2106.747,560.305 -1533.634,1030.961 -2817.533,3153.716 -3169.725,5238.051 -38.421,214.517 -57.631,515.48 -57.631,912.496 -3.202,640.349 35.219,915.699 192.104,1344.732 l 80.044,220.92 -160.087,275.35 c -678.769,1184.645 -784.427,2609.42 -316.973,4264.721 54.43,198.508 102.456,361.797 105.658,361.797 3.202,0 6.403,-278.551 6.403,-614.734 z m 26007.754,0 c 387.411,-1485.609 249.736,-2897.577 -384.209,-4005.38 l -163.289,-281.754 80.044,-220.92 c 156.885,-429.033 195.306,-704.383 192.104,-1344.732 0,-397.016 -19.21,-697.979 -57.631,-912.496 -352.192,-2087.536 -1636.09,-4207.09 -3169.725,-5238.051 -762.015,-512.279 -1472.802,-701.181 -2106.747,-560.305 -467.454,105.658 -902.891,461.051 -1143.022,941.313 -268.946,541.094 -336.183,918.9 -313.77,1783.37 16.008,678.769 73.64,1046.97 262.543,1693.722 275.349,950.917 790.83,1972.273 1427.977,2827.138 291.358,393.815 1050.171,1149.426 1392.758,1395.96 345.788,243.333 800.435,477.06 1133.416,582.717 499.472,156.886 1075.786,137.675 1440.785,-48.026 l 128.069,-64.035 137.675,176.096 c 633.945,806.839 957.321,1911.44 960.523,3281.786 v 624.34 l 60.833,-192.105 c 32.017,-105.657 86.447,-304.165 121.666,-438.638 z M 25627.06,26450.454 c 294.561,-64.035 710.787,-246.535 1008.549,-441.841 368.201,-240.131 934.909,-826.049 1226.268,-1264.688 835.654,-1261.487 1283.898,-2968.015 1232.67,-4703.36 l -16.008,-509.077 291.358,-19.21 c 976.532,-73.64 1751.353,-288.157 2622.227,-729.998 691.577,-352.191 1197.452,-723.593 1722.538,-1264.688 1744.949,-1799.379 1953.063,-4168.668 499.472,-5699.101 -800.436,-842.059 -2039.51,-1322.32 -3416.26,-1322.32 -1796.177,0 -3717.223,867.672 -4885.858,2199.597 -259.342,297.762 -608.332,800.436 -765.217,1104.601 -54.43,102.456 -118.464,185.701 -144.078,185.701 -25.614,0 -89.649,-83.245 -144.079,-185.701 -284.955,-550.699 -803.637,-1200.653 -1306.311,-1642.494 -1533.634,-1344.731 -3742.837,-1949.861 -5577.435,-1527.231 -2561.394,589.121 -3784.46,2852.753 -2814.332,5206.033 496.27,1207.057 1530.433,2276.439 2852.753,2945.603 870.874,441.841 1645.696,656.358 2622.227,729.998 l 291.359,19.21 -16.009,489.867 c -54.43,1741.748 393.814,3457.882 1232.671,4722.57 291.358,435.437 858.067,1024.557 1223.065,1264.688 409.823,268.947 941.313,464.253 1395.96,509.077 201.71,19.211 621.138,-12.807 864.47,-67.236 z"
       id="path3538"
       style="fill:#ff0000;stroke-width:3.20174241"
       inkscape:connector-curvature="0" />
  </g>
</svg>
