<?xml version="1.0" encoding="UTF-8" standalone="no"?>
<svg
   xmlns:dc="http://purl.org/dc/elements/1.1/"
   xmlns:cc="http://creativecommons.org/ns#"
   xmlns:rdf="http://www.w3.org/1999/02/22-rdf-syntax-ns#"
   xmlns:svg="http://www.w3.org/2000/svg"
   xmlns="http://www.w3.org/2000/svg"
   xmlns:sodipodi="http://sodipodi.sourceforge.net/DTD/sodipodi-0.dtd"
   xmlns:inkscape="http://www.inkscape.org/namespaces/inkscape"
   version="1.0"
   width="5000.000000pt"
   height="5000.000000pt"
   viewBox="0 0 5000.000000 5000.000000"
   preserveAspectRatio="xMidYMid meet"
   id="svg3542"
   sodipodi:docname="Animal-Trap-Icon-Green_2.svg"
   inkscape:version="0.92.4 (5da689c313, 2019-01-14)"
   inkscape:export-filename="C:\Users\fredy\Downloads\Animal-Trap-Icon-Green.png"
   inkscape:export-xdpi="96"
   inkscape:export-ydpi="96">
  <metadata
     id="metadata3548">
    <rdf:RDF>
      <cc:Work
         rdf:about="">
        <dc:format>image/svg+xml</dc:format>
        <dc:type
           rdf:resource="http://purl.org/dc/dcmitype/StillImage" />
        <dc:title />
      </cc:Work>
    </rdf:RDF>
  </metadata>
  <defs
     id="defs3546" />
  <sodipodi:namedview
     pagecolor="#ffffff"
     bordercolor="#666666"
     borderopacity="1"
     objecttolerance="10"
     gridtolerance="10"
     guidetolerance="10"
     inkscape:pageopacity="0"
     inkscape:pageshadow="2"
     inkscape:window-width="1920"
     inkscape:window-height="1017"
     id="namedview3544"
     showgrid="false"
     inkscape:zoom="0.10232942"
     inkscape:cx="815.55554"
     inkscape:cy="3380.4903"
     inkscape:window-x="-8"
     inkscape:window-y="-8"
     inkscape:window-maximized="1"
     inkscape:current-layer="g3540" />
  <g
     transform="translate(0.000000,5000.000000) scale(0.100000,-0.100000)"
     fill="#000000"
     stroke="none"
     id="g3540">
    <path
       d="M 7535.8089,49880.797 C 6367.0662,49790.894 5166.2153,49424.859 4164.4358,48850.12 3496.5829,48464.821 3011.7474,48092.364 2459.4843,47543.312 1049.9293,46130.546 256.85398,44374.221 118.78823,42348.187 93.10158,41991.785 86.679917,36745.286 93.10158,24646.873 102.73407,8441.8068 109.15574,7430.3949 160.52904,7086.836 446.29304,5234.1862 1197.6276,3725.0954 2462.6952,2460.0279 3763.0819,1156.4303 5378.1301,376.19825 7246.834,141.80756 c 497.6789,-61.0058 35014.117,-61.0058 35511.796,0 1871.914,234.39069 3480.541,1014.62274 4784.139,2318.22034 1303.597,1303.5975 2083.829,2912.2241 2318.22,4784.1388 61.006,497.6789 61.006,35014.1173 0,35511.7953 -234.391,1868.704 -1014.623,3483.753 -2318.22,4784.139 -1265.068,1265.068 -2774.159,2016.402 -4626.809,2302.166 -346.769,51.374 -1345.338,54.585 -17704.524,61.006 -9536.169,3.211 -17489.3989,-6.421 -17675.6271,-22.476 z M 26126.523,44586.136 c 3371.373,-205.493 6476.247,-1197.64 9311.411,-2979.651 1704.952,-1069.207 3329.632,-2494.816 4671.76,-4100.232 590.793,-706.383 1345.338,-1782.011 1846.228,-2632.882 337.137,-574.739 934.352,-1782.011 1200.851,-2433.81 1948.975,-4713.501 1948.975,-10175.125 0,-14878.993 C 41927.024,14590.549 40006.947,11983.354 37508.92,9893.1026 36821.802,9318.3638 35842.499,8628.035 34956.309,8098.2479 34404.046,7767.5322 33068.34,7099.6793 32435.807,6839.6019 30596,6085.0566 28711.242,5635.5401 26576.039,5439.6794 c -565.106,-51.3733 -2581.508,-51.3733 -3146.615,0 -2735.628,250.4449 -5031.372,905.4545 -7368.858,2106.3055 -3124.139,1602.2048 -5792.34,4045.6471 -7664.2543,7018.8771 -767.3887,1220.116 -1444.8742,2620.039 -1910.4447,3949.323 -1579.7291,4511.218 -1451.2958,9504.061 356.4023,13918.954 260.0773,632.534 927.9302,1968.24 1258.6459,2520.503 1460.9283,2437.021 3297.5238,4430.947 5567.5818,6049.206 2087.04,1486.615 4508.007,2571.876 6989.98,3130.561 1123.791,253.656 2083.83,385.3 3397.06,462.36 404.564,25.686 1592.572,19.265 2070.986,-9.633 z"
       id="path3536"
       style="fill:#4caf50;fill-opacity:1;stroke-width:3.2108314"
       inkscape:connector-curvature="0" />
    <path
       d="M 23862.887,42929.347 C 22767.993,42845.866 21673.1,42672.481 20709.85,42434.879 18751.243,41950.044 16847.22,41118.438 15161.534,40013.912 14143.7,39346.059 13235.035,38601.147 12316.737,37686.06 10836.544,36202.655 9767.3367,34703.197 8852.2497,32821.65 7917.8978,30904.784 7372.0565,28994.339 7128.0333,26782.076 c -80.2708,-735.28 -80.2708,-2828.742 0,-3564.023 244.0232,-2212.263 789.8645,-4122.707 1724.2164,-6039.574 699.9613,-1438.452 1518.7233,-2687.466 2539.7673,-3881.895 423.83,-494.468 1412.766,-1483.404 1907.234,-1907.234 2803.056,-2401.7018 6174.429,-3852.9976 9905.415,-4263.9841 760.967,-83.4816 2835.164,-83.4816 3596.131,0 3705.3,407.7756 6999.613,1814.1198 9825.145,4196.5571 555.474,468.781 1586.15,1499.458 2054.932,2054.932 2382.437,2825.531 3788.781,6119.844 4196.556,9825.144 44.952,420.619 57.795,789.864 57.795,1798.066 0,1008.201 -12.843,1377.446 -57.795,1798.065 -407.775,3702.089 -1814.119,6999.613 -4196.556,9825.144 -468.782,555.474 -1499.458,1586.151 -2054.932,2054.932 -2815.899,2372.805 -6116.634,3785.571 -9793.036,4193.346 -443.095,48.163 -2549.4,89.904 -2970.019,57.795 z m 4819.458,-4405.26 378.878,-2099.884 144.487,-99.536 c 507.312,-343.559 876.557,-812.34 1223.327,-1547.621 410.986,-870.135 629.323,-1884.758 664.642,-3098.452 48.163,-1727.427 -324.294,-3275.048 -1053.153,-4353.887 -327.504,-488.047 -783.442,-879.768 -1207.272,-1040.31 -234.391,-89.903 -671.064,-118.801 -911.876,-64.216 -1843.018,427.04 -2963.598,3910.792 -2289.323,7105.569 272.921,1290.755 905.454,2453.076 1586.151,2915.435 134.854,93.115 160.541,131.645 189.439,253.656 16.054,80.271 215.125,1065.996 439.884,2196.209 253.655,1268.278 420.618,2026.034 436.673,1990.715 12.843,-35.319 192.649,-1004.99 398.143,-2157.678 z m -7516.557,38.53 385.3,-2138.414 176.596,-112.379 c 96.325,-64.217 279.342,-218.337 401.354,-343.559 735.28,-751.335 1239.381,-2003.559 1412.766,-3519.072 70.638,-594.003 54.584,-1849.438 -32.109,-2408.123 -112.379,-757.756 -362.824,-1592.572 -651.799,-2167.311 -317.872,-638.956 -841.237,-1242.592 -1277.91,-1467.35 -757.757,-394.933 -1476.983,-260.078 -2151.257,407.775 -696.751,687.118 -1171.954,1759.536 -1396.712,3146.615 -96.325,603.636 -118.801,1849.439 -48.163,2488.394 173.385,1480.194 655.01,2703.521 1367.815,3474.12 102.746,112.379 260.077,253.656 349.98,314.662 89.903,61.005 166.963,134.855 176.596,160.541 6.422,25.687 205.493,1004.99 443.095,2176.944 234.39,1168.743 433.462,2125.57 443.094,2125.57 9.633,0 189.439,-963.249 401.354,-2138.413 z m -9112.339,-5413.462 c 3.211,-1364.604 327.504,-2475.551 963.249,-3284.681 l 138.066,-176.596 128.433,64.217 c 366.035,186.228 943.985,205.493 1444.874,48.163 333.927,-105.958 789.865,-340.349 1136.635,-584.372 343.559,-247.234 1104.526,-1004.99 1396.711,-1399.922 638.956,-857.292 1155.9,-1881.547 1432.031,-2835.164 189.439,-648.588 247.234,-1017.834 263.288,-1698.53 22.476,-866.925 -44.951,-1245.803 -314.661,-1788.433 -240.813,-481.625 -677.486,-838.027 -1146.267,-943.985 -635.745,-141.276 -1348.549,48.163 -2112.727,561.896 -1537.988,1033.887 -2825.532,3162.669 -3178.723,5252.92 -38.53,215.126 -57.795,516.944 -57.795,915.087 -3.211,642.166 35.319,918.298 192.65,1348.549 l 80.27,221.547 -160.541,276.132 c -680.696,1188.008 -786.654,2616.828 -317.872,4276.827 54.584,199.072 102.746,362.824 105.957,362.824 3.211,0 6.422,-279.342 6.422,-616.479 z m 26081.583,0 c 388.511,-1489.826 250.445,-2905.803 -385.299,-4016.75 l -163.753,-282.554 80.271,-221.547 c 157.331,-430.251 195.861,-706.383 192.65,-1348.549 0,-398.143 -19.265,-699.961 -57.795,-915.087 -353.191,-2093.462 -1640.735,-4219.033 -3178.723,-5252.92 -764.178,-513.733 -1476.983,-703.172 -2112.727,-561.896 -468.782,105.958 -905.455,462.36 -1146.267,943.985 -269.71,542.63 -337.137,921.508 -314.662,1788.433 16.055,680.696 73.85,1049.942 263.289,1698.53 276.131,953.617 793.075,1977.872 1432.03,2835.164 292.186,394.932 1053.153,1152.688 1396.712,1399.922 346.77,244.023 802.708,478.414 1136.634,584.372 500.89,157.33 1078.84,138.065 1444.875,-48.163 l 128.433,-64.217 138.066,176.596 c 635.744,809.13 960.038,1916.867 963.249,3291.102 v 626.113 l 61.006,-192.65 c 32.108,-105.958 86.692,-305.029 122.011,-439.884 z M 25628.844,26454.571 c 295.397,-64.216 712.805,-247.234 1011.412,-443.095 369.246,-240.812 937.563,-828.394 1229.748,-1268.278 838.027,-1265.068 1287.544,-2976.441 1236.17,-4716.711 l -16.054,-510.523 292.186,-19.265 c 979.304,-73.849 1756.325,-288.974 2629.671,-732.069 693.54,-353.192 1200.851,-725.648 1727.427,-1268.279 1749.903,-1804.487 1958.607,-4180.502 500.89,-5715.279 -802.708,-844.449 -2045.3,-1326.074 -3425.957,-1326.074 -1801.277,0 -3727.776,870.135 -4899.729,2205.841 -260.077,298.608 -610.058,802.708 -767.389,1107.737 -54.584,102.747 -118.8,186.228 -144.487,186.228 -25.687,0 -89.903,-83.481 -144.488,-186.228 -285.764,-552.263 -805.918,-1204.062 -1310.019,-1647.156 -1537.988,-1348.55 -3753.462,-1955.397 -5593.268,-1531.567 -2568.665,590.793 -3795.203,2860.851 -2822.321,5220.812 497.679,1210.483 1534.777,2282.901 2860.851,2953.965 873.346,443.095 1650.367,658.22 2629.671,732.069 l 292.185,19.265 -16.054,491.258 c -54.584,1746.692 394.933,3467.698 1236.17,4735.976 292.186,436.673 860.503,1027.466 1226.538,1268.278 410.986,269.71 943.984,465.571 1399.923,510.523 202.282,19.265 622.901,-12.844 866.924,-67.428 z"
       id="path3538"
       style="fill:#4caf50;fill-opacity:1;stroke-width:3.2108314"
       inkscape:connector-curvature="0" />
  </g>
</svg>
