<?xml version="1.0" encoding="utf-8"?>
<!-- Generator: Adobe Illustrator 24.0.1, SVG Export Plug-In . SVG Version: 6.00 Build 0)  -->
<svg version="1.1" id="Layer_1" xmlns="http://www.w3.org/2000/svg" xmlns:xlink="http://www.w3.org/1999/xlink" x="0px" y="0px"
	 viewBox="0 0 1335.2 1327" style="enable-background:new 0 0 1335.2 1327;" xml:space="preserve">
<style type="text/css">
	.st0{fill:#4BAE4F;}
	.st1{fill:#FFFFFF;}
</style>
<path class="st0" d="M1101.9,41.5H233.3C129.1,41.5,44.6,126,44.6,230.3v868.4c0,104.3,84.5,188.8,188.7,188.8h868.7
	c104.2,0,188.7-84.5,188.7-188.8V230.3C1290.6,126,1206.1,41.5,1101.9,41.5z"/>
<path class="st1" d="M1072.4,408.5c-17.3-18.1-41.2-28.9-68.4-28.9H867.1V378c0-20.6-8.2-40.4-22.3-53.6c-14-14-33-22.3-53.6-22.3
	H543.9c-21.4,0-40.4,8.2-54.4,22.3c-14,14-22.3,33-22.3,53.6v1.6h-136c-27.2,0-51.1,10.7-68.4,28.9c-17.3,17.3-28.9,42-28.9,68.4
	v410.6c0,27.2,10.7,51.1,28.9,68.4c17.3,17.3,42,28.9,68.4,28.9H1004c27.2,0,51.1-10.7,68.4-28.9c17.3-17.3,28.9-42.1,28.9-68.4V477
	C1101.2,449.7,1090.5,425.8,1072.4,408.5z M1058.4,887.5h-0.8c0,14.8-5.8,28-15.7,37.9c-9.9,9.9-23.1,15.7-37.9,15.7H331.2
	c-14.8,0-28-5.8-37.9-15.7c-9.9-9.9-15.7-23.1-15.7-37.9V477c0-14.8,5.8-28,15.7-37.9c9.9-9.9,23.1-15.7,37.9-15.7h159.1
	c12.4,0,22.3-9.9,22.3-22.3v-23.9c0-9.1,3.3-17.3,9.1-23.1c5.8-5.8,14-9.1,23.1-9.1h246.5c9.1,0,17.3,3.3,23.1,9.1s9.1,14,9.1,23.1
	v23.9c0,12.4,9.9,22.3,22.3,22.3h159.1c14.8,0,28,5.8,37.9,15.7c9.9,9.9,15.7,23.1,15.7,37.9V887.5z"/>
<path class="st1" d="M667.6,479.4c-56.1,0-107.2,23.1-143.4,59.4c-37.1,37.1-59.4,87.4-59.4,143.4s23.1,107.2,59.4,143.4
	c37.1,37.1,87.4,59.4,143.4,59.4S774.8,862,811,825.7c37.1-37.1,59.4-87.4,59.4-143.4S847.3,575.1,811,538.8
	C774.8,502.5,723.7,479.4,667.6,479.4z M779.7,795.2c-28.9,28-68.4,46.2-112.1,46.2c-43.7,0-83.3-18.1-112.1-46.2
	c-28.8-28.9-46.2-68.4-46.2-112.1c0-43.7,18.1-83.3,46.2-112.1c28.9-28.8,68.4-46.2,112.1-46.2c43.7,0,83.3,18.1,112.1,46.2
	c28.9,28.9,46.2,68.4,46.2,112.1C826.7,726.8,808.6,766.3,779.7,795.2z"/>
<path class="st1" d="M961.1,559.4c22.3,0,40.4-18.1,40.4-40.4c0-22.3-18.1-40.4-40.4-40.4s-40.4,18.1-40.4,40.4
	C920.7,541.3,938.8,559.4,961.1,559.4z"/>
</svg>
