<svg width="4096" height="4096" viewBox="0 0 4096 4096" fill="none" xmlns="http://www.w3.org/2000/svg">
<path d="M2482.33 1425H1613.67C1509.47 1425 1425 1509.52 1425 1613.79V2482.21C1425 2586.48 1509.47 2671 1613.67 2671H2482.33C2586.53 2671 2671 2586.48 2671 2482.21V1613.79C2671 1509.52 2586.53 1425 2482.33 1425Z" fill="#FE0000"/>
<g clip-path="url(#clip0)">
<path d="M2452.79 1813.04C2435.48 1794.9 2411.57 1784.18 2384.36 1784.18H2247.51V1782.54C2247.51 1761.92 2239.27 1742.14 2225.25 1728.95C2211.24 1714.93 2192.27 1706.69 2171.66 1706.69H1924.34C1902.9 1706.69 1883.94 1714.93 1869.92 1728.95C1855.91 1742.96 1847.66 1761.92 1847.66 1782.54V1784.18H1711.63C1684.43 1784.18 1660.52 1794.9 1643.21 1813.04C1625.89 1830.35 1614.35 1855.09 1614.35 1881.47V2292.03C1614.35 2319.24 1625.07 2343.15 1643.21 2360.46C1660.52 2377.77 1685.25 2389.31 1711.63 2389.31H2384.36C2411.57 2389.31 2435.48 2378.6 2452.79 2360.46C2470.1 2343.15 2481.65 2318.41 2481.65 2292.03V1881.47C2481.65 1854.26 2470.93 1830.35 2452.79 1813.04ZM2438.78 2292.03H2437.95C2437.95 2306.87 2432.18 2320.06 2422.29 2329.95C2412.4 2339.85 2399.2 2345.62 2384.36 2345.62H1711.63C1696.79 2345.62 1683.6 2339.85 1673.71 2329.95C1663.82 2320.06 1658.05 2306.87 1658.05 2292.03V1881.47C1658.05 1866.63 1663.82 1853.44 1673.71 1843.54C1683.6 1833.65 1696.79 1827.88 1711.63 1827.88H1870.75C1883.11 1827.88 1893.01 1817.99 1893.01 1805.62V1781.71C1893.01 1772.64 1896.3 1764.4 1902.08 1758.63C1907.85 1752.86 1916.09 1749.56 1925.16 1749.56H2171.66C2180.73 1749.56 2188.98 1752.86 2194.75 1758.63C2200.52 1764.4 2203.82 1772.64 2203.82 1781.71V1805.62C2203.82 1817.99 2213.71 1827.88 2226.08 1827.88H2385.19C2400.03 1827.88 2413.22 1833.65 2423.11 1843.54C2433.01 1853.44 2438.78 1866.63 2438.78 1881.47V2292.03Z" fill="white"/>
<path d="M2048 1883.94C1991.94 1883.94 1940.83 1907.02 1904.55 1943.3C1867.45 1980.4 1845.19 2030.69 1845.19 2086.75C1845.19 2142.81 1868.28 2193.92 1904.55 2230.2C1941.65 2267.3 1991.94 2289.56 2048 2289.56C2104.06 2289.56 2155.18 2266.47 2191.45 2230.2C2228.55 2193.1 2250.81 2142.81 2250.81 2086.75C2250.81 2030.69 2227.73 1979.57 2191.45 1943.3C2155.18 1907.02 2104.06 1883.94 2048 1883.94ZM2160.12 2199.7C2131.27 2227.73 2091.7 2245.86 2048 2245.86C2004.31 2245.86 1964.74 2227.73 1935.88 2199.7C1907.03 2170.84 1889.71 2131.27 1889.71 2087.57C1889.71 2043.88 1907.85 2004.31 1935.88 1975.45C1964.74 1946.6 2004.31 1929.28 2048 1929.28C2091.7 1929.28 2131.27 1947.42 2160.12 1975.45C2188.98 2004.31 2206.29 2043.88 2206.29 2087.57C2207.12 2131.27 2188.98 2170.84 2160.12 2199.7Z" fill="white"/>
<path d="M2341.5 1963.91C2363.81 1963.91 2381.89 1945.82 2381.89 1923.51C2381.89 1901.2 2363.81 1883.12 2341.5 1883.12C2319.19 1883.12 2301.1 1901.2 2301.1 1923.51C2301.1 1945.82 2319.19 1963.91 2341.5 1963.91Z" fill="white"/>
</g>
<defs>
<clipPath id="clip0">
<rect width="867.295" height="867.295" fill="white" transform="translate(1614.35 1614.35)"/>
</clipPath>
</defs>
</svg>
