<?xml version="1.0" encoding="utf-8"?>
<!-- Generator: Adobe Illustrator 24.0.1, SVG Export Plug-In . SVG Version: 6.00 Build 0)  -->
<svg version="1.1" id="Layer_1" xmlns="http://www.w3.org/2000/svg" xmlns:xlink="http://www.w3.org/1999/xlink" x="0px" y="0px"
	 viewBox="0 0 1607.1 1604.7" style="enable-background:new 0 0 1607.1 1604.7;" xml:space="preserve">
<style type="text/css">
	.st0{fill:#3E4837;}
	.st1{fill:#FFFFFF;}
</style>
<g>
	<path class="st0" d="M804.8,29.7c172,0,343.9,0,515.9,0c26.1,0,51.8,2.1,77.1,9.3c98,28.3,164.8,112,177.2,201.8
		c1.9,13.8,3.1,27.8,3.1,41.8c0.2,347.9,0,695.9,0.2,1043.8c0.1,108.4-66,196.6-153.5,232.8c-28.6,11.8-58.3,18.6-89.4,18.9
		c-4.7,0-9.3,0-14,0c-345.3,0-690.5-0.1-1035.8,0.2c-37.2,0-73.2-5.3-107-20.8c-80.2-36.8-128.9-99.1-145.7-185.5
		c-3.4-17.5-4-35.8-4-53.7c-0.2-304.6-0.2-609.2-0.2-913.8c0-41.3-0.2-82.7,0.1-124c0.2-31.6,5-62.5,17.2-91.8
		C82.6,101,147.9,48.9,241.1,32.3c15.6-2.8,31.9-2.5,47.9-2.5C460.9,29.6,632.8,29.7,804.8,29.7z M804.4,1415.6
		c329.8,1.6,610.5-268.1,611.4-610.4c0.9-337.5-273.6-612.6-610.8-613.4C471.6,191,191.1,460.6,191.6,804.6
		C192.1,1153.8,478.9,1418.2,804.4,1415.6z"/>
	<path class="st0" d="M804,246c298.8-1.8,558.2,242.1,557.9,558.6c-0.4,313.5-256.9,558.1-559.4,557.5
		c-298.1-0.6-557.9-241.4-556.8-560.1C246.7,481.3,510.3,243.7,804,246z"/>
</g>
<g>
	<path class="st1" d="M770.1,596.7V990c0,15.3-4.9,20.8-20.8,20.8h-34.9c-10.4,0-15.3-2.5-20.2-10.4L544,778.7
		c-28.8-42.9-47.8-99.3-50.2-102.9h-3.7c0,4.9,13.5,63.7,13.5,121.9V990c0,15.3-5.5,20.8-20.8,20.8h-32.5
		c-15.9,0-21.4-5.5-21.4-20.8V596.7c0-15.3,5.5-20.8,21.4-20.8h34.9c11,0,15.9,3.7,20.2,9.8l148.9,220.6
		c31.2,46.6,48.4,99.3,51.5,104.2h3.7c0-6.1-13.5-61.9-13.5-123.8v-190c0-15.3,5.5-20.8,20.8-20.8h32.5
		C765.2,575.9,770.1,581.4,770.1,596.7z"/>
	<path class="st1" d="M1031.7,566.7c87.6,0,132.3,31.9,161.1,92.5c6.7,14.1,3.1,21.4-11.6,28.2l-33.7,14.7
		c-13.5,6.1-19,3.7-26.3-10.4c-16.5-32.5-41-51.5-89.5-51.5c-59.4,0-88.8,18.4-88.8,56.4c0,44.1,50.2,52.1,106,58.2
		c72.3,8,155.6,25.7,155.6,128c0,81.5-61.9,137.2-174.6,137.2c-95,0-143.4-36.1-168.5-102.3c-5.5-15.3-1.8-22.1,12.9-27l33.7-12.3
		c14.1-4.9,20.2-1.8,26.3,12.9c15.3,36.1,47.8,57,95.6,57c63.1,0,97.4-19.6,97.4-63.7c0-42.3-45.3-51.5-96.8-57
		c-74.7-8-166.6-19.6-166.6-126.8C863.8,623,921.4,566.7,1031.7,566.7z"/>
</g>
</svg>
